<svg width="154" height="19" viewBox="0 0 154 19" fill="none" xmlns="http://www.w3.org/2000/svg">
<path fill-rule="evenodd" clip-rule="evenodd" d="M19.5467 16.138C18.7284 15.2639 18.0962 14.2594 17.6506 13.1268L17.6499 13.1253C17.2039 11.973 16.9817 10.7481 16.9817 9.453C16.9817 8.14055 17.2037 6.91496 17.6506 5.77916C18.0962 4.64657 18.7284 3.64213 19.5467 2.76797L19.549 2.76553C20.3884 1.88881 21.386 1.20871 22.5387 0.725341C23.6955 0.240248 24.9685 0 26.3537 0C27.739 0 29.012 0.240248 30.1687 0.725341C31.3214 1.20871 32.3106 1.88906 33.1325 2.76667C33.9691 3.64079 34.6109 4.64563 35.0569 5.77916C35.5037 6.91496 35.7257 8.14055 35.7257 9.453C35.7257 10.7481 35.5035 11.973 35.0575 13.1253L35.0569 13.1268C34.6109 14.2604 33.9691 15.2652 33.1325 16.1393C32.3106 17.0169 31.3214 17.6973 30.1687 18.1807C29.012 18.6658 27.739 18.906 26.3537 18.906C24.9685 18.906 23.6955 18.6658 22.5387 18.1807C21.386 17.6973 20.3884 17.0172 19.549 16.1405L19.5467 16.138ZM29.9485 3.49789C28.9602 2.88448 27.7664 2.571 26.3537 2.571C24.96 2.571 23.7649 2.88408 22.757 3.49909L22.7538 3.50104C21.7391 4.10296 20.9592 4.91715 20.4093 5.94747C19.8763 6.97993 19.6067 8.14628 19.6067 9.453C19.6067 10.7406 19.8758 11.9076 20.4098 12.9594C20.9598 13.9895 21.74 14.813 22.7554 15.4329C23.7635 16.0305 24.9593 16.335 26.3537 16.335C27.7675 16.335 28.9623 16.03 29.9509 15.4336C30.9669 14.8136 31.7381 13.9901 32.2702 12.9603L32.271 12.9586C32.8228 11.9068 33.1007 10.7401 33.1007 9.453C33.1007 8.14707 32.8225 6.98138 32.272 5.94918L32.2702 5.94572C31.7384 4.91647 30.9681 4.10281 29.9537 3.50102L29.9485 3.49789ZM43.6907 0.215999V16.146H53.4377V18.69H41.0657V0.215999H43.6907ZM60.7936 18.69V11.41L53.0138 0.215999H56.2014L62.0926 8.68466L67.9839 0.215999H71.1703L63.4186 11.4097V18.69H60.7936ZM78.0571 0.215999L84.3046 8.49331L90.4467 0.215999H93.2467V18.69H90.6217V4.46837L84.3086 12.5852L77.8837 4.45729V18.69H75.2587V0.215999H78.0571ZM99.7116 0.215999H113.461V2.76H102.337V8.154H112.273V10.725H102.337V16.146H113.461V18.69H99.7116V0.215999ZM121.127 18.18L121.123 18.1784C119.982 17.6734 119.105 16.9734 118.51 16.0712L118.507 16.0674C117.94 15.1779 117.61 14.1767 117.516 13.0693L117.489 12.744H120.203L120.221 13.0253C120.271 13.8287 120.536 14.4591 120.999 14.9399C121.48 15.4191 122.116 15.783 122.922 16.0232C123.755 16.2661 124.671 16.389 125.672 16.389C127.153 16.389 128.29 16.1328 129.109 15.6489C129.899 15.1641 130.286 14.47 130.286 13.53C130.286 12.9814 130.095 12.5642 129.718 12.2477L129.708 12.2394C129.315 11.879 128.771 11.5727 128.059 11.3299L128.057 11.3292C127.349 11.0814 126.568 10.8593 125.713 10.6634L125.708 10.6621C124.842 10.4457 123.968 10.2203 123.084 9.98597L123.083 9.98557C122.202 9.74705 121.383 9.44364 120.627 9.07463L120.624 9.07334C119.87 8.69647 119.25 8.21171 118.77 7.61632L118.763 7.60811C118.284 6.96939 118.055 6.17299 118.055 5.241C118.055 3.69423 118.653 2.42089 119.839 1.44531L119.841 1.44382C121.05 0.464914 122.812 0 125.078 0C126.69 0 128.042 0.246637 129.12 0.757087C130.185 1.24307 130.998 1.89678 131.539 2.72678C132.089 3.54292 132.395 4.43049 132.452 5.38503L132.471 5.703H129.807L129.776 5.43874C129.678 4.62729 129.276 3.94086 128.54 3.37239L128.537 3.3698C127.822 2.80114 126.687 2.49 125.078 2.49C124.087 2.49 123.301 2.58782 122.711 2.7732C122.108 2.96268 121.668 3.20512 121.37 3.48779C121.074 3.76687 120.88 4.05151 120.772 4.33924C120.673 4.65425 120.626 4.94536 120.626 5.214C120.626 5.72263 120.806 6.12379 121.167 6.44191C121.582 6.77272 122.131 7.06248 122.824 7.30537C123.552 7.53587 124.352 7.74925 125.225 7.94529C126.112 8.14439 126.99 8.37062 127.859 8.62397C128.757 8.8625 129.577 9.17517 130.317 9.56333C131.089 9.9406 131.712 10.4359 132.175 11.053C132.673 11.6926 132.911 12.4993 132.911 13.449C132.911 15.194 132.241 16.5664 130.896 17.5271L130.893 17.5288C129.566 18.4582 127.77 18.906 125.537 18.906C123.751 18.906 122.275 18.6695 121.127 18.18ZM138.15 0.215999H140.775V8.154H150.57V0.215999H153.195V18.69H150.57V10.725H140.775V18.69H138.15V0.215999Z" fill="url(#paint0_linear_1061_11594)"/>
<path d="M6.27041 9.12055C7.67231 9.12055 8.64971 8.83191 9.24995 8.29914C9.85172 7.74684 10.1654 6.95251 10.1654 5.88315C10.1654 4.78274 9.84478 3.83517 9.25117 3.30752C8.65103 2.77406 7.67325 2.48503 6.27041 2.48503H7.97642e-06V3.05176e-05H6.59921C7.84869 3.05176e-05 8.94227 0.233013 9.87298 0.707324C10.8203 1.16251 11.5637 1.81938 12.0974 2.67705C12.636 3.54278 12.897 4.72358 12.897 5.88315C12.897 7.04891 12.6334 8.06701 12.0974 8.92854C11.5637 9.78613 10.8206 10.4518 9.87376 10.9253L9.87218 10.926C8.94173 11.3818 7.84853 11.6056 6.59921 11.6056H2.62201V18.6747H7.97642e-06V9.12055H6.27041Z" fill="url(#paint1_linear_1061_11594)"/>
<defs>
<linearGradient id="paint0_linear_1061_11594" x1="66.1828" y1="-0.359214" x2="66.12" y2="35.6308" gradientUnits="userSpaceOnUse">
<stop stop-color="#FF2E72"/>
<stop offset="0.934908" stop-color="#4A125E"/>
</linearGradient>
<linearGradient id="paint1_linear_1061_11594" x1="75.8204" y1="-0.359184" x2="75.7497" y2="35.6308" gradientUnits="userSpaceOnUse">
<stop stop-color="#FF2E72"/>
<stop offset="0.934908" stop-color="#4A125E"/>
</linearGradient>
</defs>
</svg>
